<svg width="40" height="40" viewBox="0 0 40 40" fill="none" xmlns="http://www.w3.org/2000/svg">
<rect width="40" height="40" rx="8" fill="#EBE8FD"/>
<g clip-path="url(#clip0_0_974)">
<path d="M25.8333 14.1667V17.5H13.3333V14.1667H25.8333ZM25.8333 22.5V25.8333H13.3333V22.5H25.8333ZM26.6666 12.5H12.5C12.0416 12.5 11.6666 12.875 11.6666 13.3333V18.3333C11.6666 18.7917 12.0416 19.1667 12.5 19.1667H26.6666C27.125 19.1667 27.5 18.7917 27.5 18.3333V13.3333C27.5 12.875 27.125 12.5 26.6666 12.5ZM26.6666 20.8333H12.5C12.0416 20.8333 11.6666 21.2083 11.6666 21.6667V26.6667C11.6666 27.125 12.0416 27.5 12.5 27.5H26.6666C27.125 27.5 27.5 27.125 27.5 26.6667V21.6667C27.5 21.2083 27.125 20.8333 26.6666 20.8333Z" fill="#6548EE"/>
</g>
<defs>
<clipPath id="clip0_0_974">
<rect width="20" height="20" fill="white" transform="translate(10 10)"/>
</clipPath>
</defs>
</svg>
