<svg width="40" height="40" viewBox="0 0 40 40" fill="none" xmlns="http://www.w3.org/2000/svg">
<rect width="40" height="40" rx="8" fill="#FCE8EF"/>
<mask id="mask0_0_1009" style="mask-type:alpha" maskUnits="userSpaceOnUse" x="10" y="10" width="20" height="20">
<rect x="10" y="10" width="20" height="20" fill="#D9D9D9"/>
</mask>
<g mask="url(#mask0_0_1009)">
<path d="M17.8332 26.293C17.5832 25.8346 17.3644 25.3589 17.1769 24.8659C16.9894 24.3728 16.8332 23.8624 16.7082 23.3346H14.2498C14.6526 24.0291 15.1561 24.6332 15.7603 25.1471C16.3644 25.661 17.0554 26.043 17.8332 26.293ZM13.5415 21.668H16.3748C16.3332 21.3902 16.3019 21.1159 16.2811 20.8451C16.2603 20.5742 16.2498 20.293 16.2498 20.0013C16.2498 19.7096 16.2603 19.4284 16.2811 19.1576C16.3019 18.8867 16.3332 18.6124 16.3748 18.3346H13.5415C13.4721 18.6124 13.42 18.8867 13.3853 19.1576C13.3505 19.4284 13.3332 19.7096 13.3332 20.0013C13.3332 20.293 13.3505 20.5742 13.3853 20.8451C13.42 21.1159 13.4721 21.3902 13.5415 21.668ZM14.2498 16.668H16.7082C16.8332 16.1402 16.9894 15.6298 17.1769 15.1367C17.3644 14.6437 17.5832 14.168 17.8332 13.7096C17.0554 13.9596 16.3644 14.3416 15.7603 14.8555C15.1561 15.3694 14.6526 15.9735 14.2498 16.668ZM18.4165 16.668H21.5832C21.4165 16.0569 21.2012 15.4805 20.9373 14.9388C20.6734 14.3971 20.3609 13.8763 19.9998 13.3763C19.6387 13.8763 19.3262 14.3971 19.0623 14.9388C18.7984 15.4805 18.5832 16.0569 18.4165 16.668ZM23.2915 16.668H25.7498C25.3471 15.9735 24.8436 15.3694 24.2394 14.8555C23.6353 14.3416 22.9443 13.9596 22.1665 13.7096C22.4165 14.168 22.6353 14.6437 22.8228 15.1367C23.0103 15.6298 23.1665 16.1402 23.2915 16.668ZM19.9998 28.3346C18.8609 28.3346 17.7846 28.1159 16.7707 27.6784C15.7568 27.2409 14.8714 26.6437 14.1144 25.8867C13.3575 25.1298 12.7603 24.2444 12.3228 23.2305C11.8853 22.2166 11.6665 21.1402 11.6665 20.0013C11.6665 18.8485 11.8853 17.7687 12.3228 16.7617C12.7603 15.7548 13.3575 14.8728 14.1144 14.1159C14.8714 13.3589 15.7568 12.7617 16.7707 12.3242C17.7846 11.8867 18.8609 11.668 19.9998 11.668C21.1526 11.668 22.2325 11.8867 23.2394 12.3242C24.2464 12.7617 25.1283 13.3589 25.8853 14.1159C26.6422 14.8728 27.2394 15.7548 27.6769 16.7617C28.1144 17.7687 28.3332 18.8485 28.3332 20.0013C28.3332 20.1402 28.3297 20.2791 28.3228 20.418C28.3158 20.5569 28.3054 20.6957 28.2915 20.8346H26.604C26.6318 20.6957 26.6491 20.5603 26.6561 20.4284C26.663 20.2964 26.6665 20.1541 26.6665 20.0013C26.6665 19.7096 26.6491 19.4284 26.6144 19.1576C26.5797 18.8867 26.5276 18.6124 26.4582 18.3346H23.6248C23.6665 18.6124 23.6978 18.8867 23.7186 19.1576C23.7394 19.4284 23.7498 19.7096 23.7498 20.0013V20.4284C23.7498 20.5603 23.7429 20.6957 23.729 20.8346H22.0623C22.0762 20.6957 22.0832 20.5603 22.0832 20.4284V20.0013C22.0832 19.7096 22.0728 19.4284 22.0519 19.1576C22.0311 18.8867 21.9998 18.6124 21.9582 18.3346H18.0415C17.9998 18.6124 17.9686 18.8867 17.9478 19.1576C17.9269 19.4284 17.9165 19.7096 17.9165 20.0013C17.9165 20.293 17.9269 20.5742 17.9478 20.8451C17.9686 21.1159 17.9998 21.3902 18.0415 21.668H20.8332V23.3346H18.4165C18.5832 23.9457 18.7984 24.5221 19.0623 25.0638C19.3262 25.6055 19.6387 26.1263 19.9998 26.6263C20.1526 26.4041 20.2984 26.1784 20.4373 25.9492C20.5762 25.7201 20.7082 25.4874 20.8332 25.2513V28.293C20.6943 28.3069 20.5589 28.3173 20.4269 28.3242C20.295 28.3312 20.1526 28.3346 19.9998 28.3346ZM26.6248 27.8138L24.1665 25.3555V27.2096H22.4998V22.5013H27.2082V24.168H25.3332L27.7915 26.6263L26.6248 27.8138Z" fill="#E9407A"/>
</g>
</svg>
