<svg width="40" height="40" viewBox="0 0 40 40" fill="none" xmlns="http://www.w3.org/2000/svg">
<rect width="40" height="40" rx="8" fill="#EBE8FD"/>
<mask id="mask0_0_990" style="mask-type:alpha" maskUnits="userSpaceOnUse" x="10" y="10" width="20" height="20">
<rect x="10" y="10" width="20" height="20" fill="#D9D9D9"/>
</mask>
<g mask="url(#mask0_0_990)">
<path d="M10.6787 26.9196V24.4069C10.6787 23.9038 10.8089 23.4414 11.0692 23.0197C11.3295 22.5979 11.6753 22.2761 12.1067 22.0541C12.9778 21.6203 13.8643 21.294 14.7664 21.0754C15.6684 20.8568 16.5845 20.7475 17.5148 20.7475C18.4514 20.7475 19.3707 20.856 20.2729 21.0729C21.1751 21.2899 22.0584 21.6153 22.9228 22.0491C23.3542 22.2706 23.7 22.5918 23.9604 23.0126C24.2207 23.4334 24.3508 23.8981 24.3508 24.4067V26.9196H10.6787ZM26.0922 26.9196V24.2552C26.0922 23.6308 25.9237 23.0291 25.5868 22.45C25.2498 21.8709 24.7639 21.355 24.1289 20.9024C24.8007 20.9924 25.4358 21.1356 26.0342 21.332C26.6327 21.5284 27.1961 21.7674 27.7245 22.0491C28.2377 22.3269 28.6321 22.6547 28.9076 23.0326C29.1832 23.4104 29.3209 23.8229 29.3209 24.2702V26.9196H26.0922ZM17.5148 19.9142C16.5715 19.9142 15.766 19.5803 15.0983 18.9126C14.4306 18.2449 14.0967 17.4394 14.0967 16.4961C14.0967 15.5529 14.4306 14.7474 15.0983 14.0797C15.766 13.412 16.5715 13.0781 17.5148 13.0781C18.458 13.0781 19.2635 13.412 19.9312 14.0797C20.5989 14.7474 20.9328 15.5529 20.9328 16.4961C20.9328 17.4394 20.5989 18.2449 19.9312 18.9126C19.2635 19.5803 18.458 19.9142 17.5148 19.9142ZM26.0922 16.4961C26.0922 17.436 25.7576 18.2407 25.0884 18.9101C24.4192 19.5795 23.6147 19.9142 22.675 19.9142C22.5184 19.9142 22.3236 19.896 22.0909 19.8596C21.8581 19.8232 21.6586 19.7809 21.4926 19.7326C21.8742 19.2815 22.1666 18.7787 22.3696 18.2242C22.5727 17.6698 22.6742 17.094 22.6742 16.4969C22.6742 15.8998 22.5727 15.3237 22.3696 14.7688C22.1666 14.2138 21.8742 13.7108 21.4926 13.2597C21.6903 13.187 21.8864 13.1385 22.0809 13.1144C22.2753 13.0902 22.4723 13.0781 22.6718 13.0781C23.6124 13.0781 24.4176 13.4128 25.0875 14.0822C25.7573 14.7515 26.0922 15.5562 26.0922 16.4961ZM12.5745 25.0238H22.455V24.4319C22.455 24.2823 22.4168 24.1463 22.3404 24.024C22.264 23.9016 22.1633 23.8064 22.0383 23.7385C21.3082 23.3767 20.5662 23.1038 19.8123 22.9196C19.0584 22.7354 18.2925 22.6434 17.5148 22.6434C16.7436 22.6434 15.9778 22.7354 15.2172 22.9196C14.4566 23.1038 13.7146 23.3767 12.9912 23.7385C12.8662 23.8064 12.7655 23.9016 12.6891 24.024C12.6127 24.1463 12.5745 24.2823 12.5745 24.4319V25.0238ZM17.514 18.0931C17.9529 18.0931 18.3289 17.9368 18.642 17.6242C18.9551 17.3116 19.1117 16.9359 19.1117 16.4969C19.1117 16.058 18.9554 15.682 18.6428 15.3689C18.3302 15.0558 17.9545 14.8992 17.5155 14.8992C17.0766 14.8992 16.7006 15.0555 16.3875 15.3681C16.0744 15.6807 15.9178 16.0564 15.9178 16.4954C15.9178 16.9343 16.0741 17.3103 16.3867 17.6234C16.6993 17.9365 17.075 18.0931 17.514 18.0931Z" fill="#6548EE"/>
</g>
</svg>
