<svg width="24" height="24" viewBox="0 0 24 24" fill="none" xmlns="http://www.w3.org/2000/svg">
<rect width="24" height="24" rx="12" fill="white"/>
<path d="M12.3333 9.33333C13.2538 9.33333 14 8.58714 14 7.66667C14 6.74619 13.2538 6 12.3333 6C11.4129 6 10.6667 6.74619 10.6667 7.66667C10.6667 8.58714 11.4129 9.33333 12.3333 9.33333Z" fill="#1C4980"/>
<path d="M12.3333 14C13.2538 14 14 13.2538 14 12.3333C14 11.4129 13.2538 10.6667 12.3333 10.6667C11.4129 10.6667 10.6667 11.4129 10.6667 12.3333C10.6667 13.2538 11.4129 14 12.3333 14Z" fill="#1C4980"/>
<path d="M12.3333 18.6667C13.2538 18.6667 14 17.9205 14 17C14 16.0795 13.2538 15.3333 12.3333 15.3333C11.4129 15.3333 10.6667 16.0795 10.6667 17C10.6667 17.9205 11.4129 18.6667 12.3333 18.6667Z" fill="#1C4980"/>
</svg>
