<svg width="12" height="12" viewBox="0 0 12 12" fill="none" xmlns="http://www.w3.org/2000/svg">
<path d="M6.18064 1.28492L4.29502 3.17054L5.23783 4.11335L7.12344 2.22773C7.90126 1.44991 9.17405 1.44991 9.95187 2.22773C10.7297 3.00555 10.7297 4.27834 9.95187 5.05616L8.06625 6.94177L9.00906 7.88458L10.8947 5.99897C12.1958 4.69789 12.1958 2.586 10.8947 1.28492C9.5936 -0.016157 7.48171 -0.0161567 6.18064 1.28492ZM7.12344 7.88458L5.23783 9.7702C4.46001 10.548 3.18722 10.548 2.4094 9.7702C1.63158 8.99238 1.63158 7.71959 2.4094 6.94177L4.29502 5.05616L3.35221 4.11335L1.46659 5.99896C0.165514 7.30004 0.165514 9.41193 1.46659 10.713C2.76767 12.0141 4.87956 12.0141 6.18064 10.713L8.06625 8.82739L7.12344 7.88458ZM3.82361 7.41318L7.59485 3.64194L8.53766 4.58475L4.76642 8.35599L3.82361 7.41318Z" fill="#1C4980"/>
</svg>
